<svg width="28" height="28" viewBox="0 0 28 28" fill="none" xmlns="http://www.w3.org/2000/svg">
<path d="M12.8332 9.33332C12.8332 8.689 13.3555 8.16666 13.9998 8.16666C14.6442 8.16666 15.1665 8.689 15.1665 9.33332V12.8333H18.6665C19.3109 12.8333 19.8332 13.3556 19.8332 14C19.8332 14.6443 19.3109 15.1667 18.6665 15.1667H15.1665V18.6667C15.1665 19.311 14.6442 19.8333 13.9998 19.8333C13.3555 19.8333 12.8332 19.311 12.8332 18.6667V15.1667H9.33317C8.68883 15.1667 8.1665 14.6443 8.1665 14C8.1665 13.3556 8.68884 12.8333 9.33317 12.8333H12.8332V9.33332Z" fill="#AEAEAE"/>
<path fill-rule="evenodd" clip-rule="evenodd" d="M26.8332 14C26.8332 21.0876 21.0875 26.8333 13.9998 26.8333C6.91219 26.8333 1.1665 21.0876 1.1665 14C1.1665 6.91234 6.91219 1.16666 13.9998 1.16666C21.0875 1.16666 26.8332 6.91234 26.8332 14ZM3.50781 14C3.50781 19.7946 8.20525 24.4921 13.9998 24.4921C19.7944 24.4921 24.4919 19.7946 24.4919 14C24.4919 8.2054 19.7944 3.50796 13.9998 3.50796C8.20525 3.50796 3.50781 8.2054 3.50781 14Z" fill="#AEAEAE"/>
</svg>
