<svg width="27" height="27" viewBox="0 0 27 27" fill="none" xmlns="http://www.w3.org/2000/svg">
<g clip-path="url(#clip0_2_1343)">
<path d="M20.5875 4.95C19.575 2.025 16.7625 0 13.5 0C9.9 0 6.8625 2.5875 6.075 5.9625L0 3.375V22.725L9 26.55L18 23.175L27 27V7.65L20.5875 4.95ZM10.125 16.2C11.475 17.775 12.7125 18.675 12.825 18.7875L13.6125 19.4625L14.2875 18.7875C14.625 18.45 15.075 18 15.525 17.6625C15.975 17.2125 16.425 16.7625 16.875 16.3125V21.15L10.125 23.7375V16.2ZM13.5 2.25C16.425 2.25 18.9 4.6125 18.9 7.65C18.9 9.7875 18 11.475 16.875 12.9375C15.975 14.0625 14.9625 15.075 13.95 15.975C13.8375 16.0875 13.6125 16.3125 13.5 16.425C11.475 14.625 8.1 10.8 8.1 7.65C8.1 4.6125 10.575 2.25 13.5 2.25ZM2.25 6.75L5.9625 8.325C6.1875 10.0125 6.975 11.7 7.875 13.275V23.625L2.25 21.2625V6.75ZM24.75 23.625L19.125 21.2625V13.725C20.25 12.0375 21.15 10.125 21.15 7.65L24.75 9.225V23.625Z" fill="#AEAEAE"/>
<path d="M13.5 10.125C14.7426 10.125 15.75 9.11764 15.75 7.875C15.75 6.63236 14.7426 5.625 13.5 5.625C12.2574 5.625 11.25 6.63236 11.25 7.875C11.25 9.11764 12.2574 10.125 13.5 10.125Z" fill="#AEAEAE"/>
</g>
<defs>
<clipPath id="clip0_2_1343">
<rect width="27" height="27" fill="white"/>
</clipPath>
</defs>
</svg>
